<svg xmlns="http://www.w3.org/2000/svg" width="474" height="100" viewBox="0 0 474 100"><path fill="#75787B" d="M243.4 30.2c-1.2-1.6-3.1-2.4-5-2.4-4.5 0-7.6 3.9-7.6 8.3 0 4.6 3.1 8.3 7.6 8.3 2.4 0 4.4-1 5.8-2.8l1.8 1.5c-1.8 2.4-4.4 3.5-7.6 3.5-5.7 0-10.2-4.4-10.2-10.5 0-5.9 4.2-10.5 10.2-10.5 2.7 0 5.4.9 7.1 3.1l-2.1 1.5zm11.8 2.3c4.1 0 7.1 2.8 7.1 7 0 4.1-3 7-7.1 7s-7.1-2.8-7.1-7 3-7 7.1-7zm0 11.9c2.9 0 4.7-2.2 4.7-4.9 0-2.8-1.8-4.9-4.7-4.9-2.9 0-4.7 2.1-4.7 4.9 0 2.7 1.9 4.9 4.7 4.9zm10.5-8.4c0-1.2-.1-2.3-.1-3.1h2.1c0 .7.1 1.4.1 2.2h.1c.6-1.3 2.2-2.5 4.4-2.5 3.5 0 5 2.2 5 5.4v8.2h-2.2v-8c0-2.2-1-3.6-3-3.6-2.9 0-4.1 2.1-4.1 5.1v6.5h-2.2V36zm16 6.6c.9 1.1 1.8 1.8 3.4 1.8 1.4 0 2.9-.6 2.9-2s-1.4-1.8-2.8-2.1c-2.5-.6-4.7-1.1-4.7-3.9 0-2.6 2.5-3.9 5-3.9 1.9 0 3.6.7 4.5 2.4l-1.8 1.2c-.6-.9-1.5-1.6-2.8-1.6-1.2 0-2.6.6-2.6 1.8 0 1.1 1.6 1.6 3.3 1.9 2.3.5 4.3 1.3 4.3 4 0 3-2.7 4.2-5.3 4.2-2.2 0-3.8-.6-5.2-2.5l1.8-1.3zm23.4.4c0 1.2.1 2.3.1 3.1h-2.1c0-.7-.1-1.4-.1-2.2-.6 1.3-2.2 2.5-4.4 2.5-3.5 0-5-2.2-5-5.4v-8.2h2.2v8c0 2.2 1 3.6 3 3.6 2.9 0 4.1-2.1 4.1-5.1v-6.5h2.2V43zm4.1-7c0-1.2-.1-2.3-.1-3.1h2.1c0 .7.1 1.4.1 2.2h.1c.6-1.3 2.2-2.5 4.4-2.5 2.9 0 3.8 1.6 4.2 2.5 1-1.6 2.2-2.5 4.2-2.5 3.8 0 5 2.1 5 5.5v8H327v-7.9c0-1.8-.7-3.6-3.2-3.6-1.9 0-3.4 1.5-3.4 3.9v7.6h-2.2v-7.5c0-2.9-.7-4-2.5-4-2.9 0-4.1 2.1-4.1 5.1v6.5h-2.2V36zm36 7.7c-1.6 2-3.4 2.7-5.9 2.7-4.2 0-6.7-3.1-6.7-7 0-4.1 2.9-7 6.8-7 3.7 0 6.3 2.5 6.3 6.9v.7H335c.2 2.3 1.9 4.2 4.3 4.2 1.9 0 3.2-.7 4.2-2l1.7 1.5zm-1.9-5.4c-.1-2.2-1.6-3.7-4-3.7s-4 1.5-4.3 3.7h8.3zm5.8-2.3c0-1.2-.1-2.3-.1-3.1h2.1c0 .7.1 1.4.1 2.2h.1c.6-1.3 2.2-2.5 4.4-2.5.3 0 .6 0 .9.1l-.1 2.2c-.4-.1-.8-.2-1.2-.2-2.7 0-3.9 1.9-3.9 4.9v6.5h-2.2V36zm18.2-9.9h12.4v2.2h-10v6.6h9.3v2.2h-9.3v9h-2.4zm16.7 0c.9 0 1.6.7 1.6 1.6 0 .9-.7 1.6-1.6 1.6-.9 0-1.6-.7-1.6-1.6-.1-.9.7-1.6 1.6-1.6zm-1.1 6.7h2.2V46h-2.2V32.8zm6.5 3.2c0-1.2-.1-2.3-.1-3.1h2.1c0 .7.1 1.4.1 2.2h.1c.6-1.3 2.2-2.5 4.4-2.5 3.5 0 5 2.2 5 5.4v8.2h-2.2v-8c0-2.2-1-3.6-3-3.6-2.9 0-4.1 2.1-4.1 5.1v6.5h-2.2V36zm15.6-1.5c1.4-1.4 3.3-2 5.3-2 3.9 0 5.5 1.9 5.5 5.6v5.7c0 .8.1 1.6.2 2.3h-2.1c-.1-.6-.1-1.4-.1-2h-.1c-.9 1.4-2.3 2.3-4.4 2.3-2.7 0-4.9-1.4-4.9-3.9 0-4.4 5.1-4.6 8.4-4.6h.8v-.4c0-1.9-1.2-2.9-3.3-2.9-1.4 0-2.9.5-3.9 1.4l-1.4-1.5zm6.4 5.2c-2.8 0-4.6.8-4.6 2.5s1.2 2.3 2.9 2.3c2.5 0 3.9-1.8 3.9-4v-.8h-2.2zm8.5-3.7c0-1.2-.1-2.3-.1-3.1h2.1c0 .7.1 1.4.1 2.2h.1c.6-1.3 2.2-2.5 4.4-2.5 3.5 0 5 2.2 5 5.4v8.2h-2.2v-8c0-2.2-1-3.6-3-3.6-2.9 0-4.1 2.1-4.1 5.1v6.5H420V36zm25.1.2c-.9-1.1-2-1.6-3.3-1.6-3 0-4.5 2.2-4.5 4.9s1.8 4.9 4.5 4.9c1.4 0 2.5-.5 3.4-1.6l1.6 1.6c-1.3 1.5-3.1 2.1-5 2.1-4.1 0-6.8-2.9-6.8-7 0-4 2.8-7 6.8-7 2 0 3.8.7 5.1 2.1l-1.8 1.6zm5.6-10.1c.9 0 1.6.7 1.6 1.6 0 .9-.7 1.6-1.6 1.6-.9 0-1.6-.7-1.6-1.6-.1-.9.6-1.6 1.6-1.6zm-1.1 6.7h2.2V46h-2.2V32.8zm6.4 1.7c1.4-1.4 3.3-2 5.3-2 3.9 0 5.5 1.9 5.5 5.6v5.7c0 .8.1 1.6.2 2.3h-2.1c-.1-.6-.1-1.4-.1-2h-.1c-.9 1.4-2.3 2.3-4.4 2.3-2.7 0-4.9-1.4-4.9-3.9 0-4.4 5.1-4.6 8.4-4.6h.8v-.4c0-1.9-1.2-2.9-3.3-2.9-1.4 0-2.9.5-3.9 1.4l-1.4-1.5zm6.4 5.2c-2.8 0-4.6.8-4.6 2.5s1.2 2.3 2.9 2.3c2.5 0 3.9-1.8 3.9-4v-.8h-2.2zm8.6-15h2.2v21.4h-2.2zm-241.5 30h5.9c3.7 0 7 1.3 7 5.5 0 4.4-3.7 5.5-6.6 5.5h-4v9h-2.4v-20zm2.3 8.9h4c2.4 0 4-1.1 4-3.3 0-2.2-1.6-3.3-4-3.3h-4v6.6zm14.1 1.1c0-1.2-.1-2.3-.1-3.1h2.1c0 .7.1 1.4.1 2.2h.1c.6-1.3 2.2-2.5 4.4-2.5.3 0 .6 0 .9.1l-.1 2.2c-.4-.1-.8-.2-1.2-.2-2.7 0-3.9 1.9-3.9 4.9v6.5h-2.2V64.7zm15.7-3.5c4.1 0 7.1 2.8 7.1 7 0 4.1-3 7-7.1 7s-7.1-2.8-7.1-7 3-7 7.1-7zm0 11.9c2.9 0 4.7-2.2 4.7-4.9s-1.8-4.9-4.7-4.9c-2.9 0-4.7 2.2-4.7 4.9s1.9 4.9 4.7 4.9zm17.8-9.7h-3.9V70c0 1.7 0 3.1 2 3.1.7 0 1.4-.1 2-.5l.1 2c-.8.3-1.8.5-2.6.5-3.1 0-3.7-1.7-3.7-4.4v-7.3h-2.9v-1.9h2.9v-3.8h2.2v3.8h3.9v1.9zm14.5 9c-1.6 2-3.4 2.7-5.9 2.7-4.2 0-6.7-3.1-6.7-7 0-4.1 2.9-7 6.8-7 3.7 0 6.3 2.5 6.3 6.9v.7h-10.7c.2 2.3 1.9 4.2 4.3 4.2 1.9 0 3.2-.7 4.2-2l1.7 1.5zm-1.9-5.5c-.1-2.2-1.6-3.7-4-3.7s-4 1.5-4.3 3.7h8.3zm15.3-2.1c-.9-1.1-2-1.6-3.3-1.6-3 0-4.5 2.2-4.5 4.9s1.8 4.9 4.5 4.9c1.4 0 2.6-.5 3.4-1.6l1.6 1.6c-1.3 1.5-3.1 2.1-5 2.1-4.1 0-6.8-2.9-6.8-7 0-4 2.8-7 6.8-7 2 0 3.8.6 5.1 2.1l-1.8 1.6zm11.4-1.4h-3.9V70c0 1.7 0 3.1 2 3.1.6 0 1.4-.1 2-.5l.1 2c-.8.3-1.8.5-2.6.5-3.1 0-3.7-1.7-3.7-4.4v-7.3h-2.9v-1.9h2.9v-3.8h2.2v3.8h3.9v1.9zm4-8.7c.9 0 1.6.7 1.6 1.6 0 .9-.7 1.6-1.6 1.6-.9 0-1.6-.7-1.6-1.6 0-.8.7-1.6 1.6-1.6zm-1.1 6.8h2.2v13.2h-2.2V61.5zm12.9-.3c4.1 0 7.1 2.8 7.1 7 0 4.1-3 7-7.1 7s-7.1-2.8-7.1-7c.1-4.2 3.1-7 7.1-7zm0 11.9c2.9 0 4.7-2.2 4.7-4.9s-1.8-4.9-4.7-4.9c-2.9 0-4.7 2.2-4.7 4.9s1.9 4.9 4.7 4.9zm10.5-8.4c0-1.2-.1-2.3-.1-3.1h2.1c0 .7.1 1.4.1 2.2h.1c.6-1.3 2.2-2.5 4.4-2.5 3.5 0 5 2.2 5 5.4v8.2h-2.2v-8c0-2.2-1-3.6-3-3.6-2.9 0-4.1 2.1-4.1 5.1v6.5H345V64.7zm24-10h6.1c3.3 0 6.7 1.2 6.7 4.9 0 2.3-1.4 3.9-3.5 4.5v.1c2.6.2 4.5 2.3 4.5 4.9 0 4.4-4.1 5.6-7.8 5.6h-6v-20zm2.4 8.5h3.3c2.2 0 4.6-.5 4.6-3.3 0-2.5-2.2-3-4.3-3h-3.5v6.3zm0 9.4h4c2.3 0 4.8-.9 4.8-3.5 0-2.8-2.4-3.6-4.8-3.6h-4.1v7.1zm26.6-1c0 1.2.1 2.3.1 3.1h-2.1c0-.7-.1-1.4-.1-2.2h-.1c-.6 1.3-2.2 2.5-4.4 2.5-3.5 0-5-2.2-5-5.4v-8.2h2.2v8c0 2.2 1 3.6 3 3.6 2.9 0 4.1-2.1 4.1-5.1v-6.5h2.2v10.2zm4.2-6.9c0-1.2-.1-2.3-.1-3.1h2.1c0 .7.1 1.4.1 2.2h.1c.6-1.3 2.2-2.5 4.4-2.5.3 0 .6 0 .9.1l-.1 2.2c-.4-.1-.8-.2-1.2-.2-2.7 0-3.9 1.9-3.9 4.9v6.5h-2.2V64.7zm21.3 7.7c-1.6 2-3.4 2.7-5.9 2.7-4.2 0-6.7-3.1-6.7-7 0-4.1 2.9-7 6.8-7 3.7 0 6.3 2.5 6.3 6.9v.7h-10.7c.2 2.3 1.9 4.2 4.3 4.2 1.9 0 3.2-.7 4.2-2l1.7 1.5zm-1.9-5.5c-.1-2.2-1.6-3.7-4-3.7s-4 1.5-4.3 3.7h8.3zm5.6-3.7c1.4-1.4 3.3-2 5.3-2 3.9 0 5.6 1.9 5.6 5.6v5.7c0 .8.1 1.6.2 2.3H436c-.1-.6-.1-1.4-.1-2h-.1c-.9 1.4-2.4 2.3-4.4 2.3-2.7 0-4.9-1.4-4.9-3.9 0-4.4 5.1-4.6 8.4-4.6h.8v-.4c0-1.9-1.2-2.9-3.3-2.9-1.4 0-2.9.5-3.9 1.4l-1.4-1.5zm6.4 5.2c-2.8 0-4.6.8-4.6 2.5s1.2 2.3 2.9 2.3c2.5 0 3.9-1.8 3.9-4v-.8h-2.2zm20 3.2c0 1.2.1 2.3.1 3.1h-2.1c0-.7-.1-1.4-.1-2.2h-.1c-.6 1.3-2.2 2.5-4.4 2.5-3.5 0-5-2.2-5-5.4v-8.2h2.2v8c0 2.2 1 3.6 3 3.6 2.9 0 4.1-2.1 4.1-5.1v-6.5h2.2v10.2z"/><path fill="#2CB34A" d="M59 60.6l15.9 2.5v11.7H59zm26.8-34.4H74.9V23c0-4.8.9-9 7-9 1.3 0 2.6.2 3.9.5V.8s-.3-.1-2.1-.4C81.8.1 79.9 0 77.8 0 61.2 0 59 11.4 59 22.5v18l26.8-4.3v-10zM166 1.1h-15.8v24.8l15.8-2.6zM93.2 100H109V72.3c3.5 2.4 7.8 3.7 12.7 3.7 4.5 0 8.6-1.2 12.1-3.4L93.2 66v34zm28.1-74.9c-4.9 0-8.9 1.4-12.3 4v-2.9H93.2V35l40.7-6.6c-3.6-2.1-7.9-3.3-12.6-3.3zM35.5 56.7c-1.7 2.6-4.5 4.4-8.5 4.4-6.8 0-10.4-5.4-10.4-10.6 0-5.3 3.6-10.6 10.4-10.6 4 0 6.8 1.8 8.5 4.4l16.2-2.6c-3.5-10-12.8-16.6-24.8-16.6C11.7 25.1.7 35.8.7 50.5s11 25.4 26.2 25.4c11.9 0 21.3-6.6 24.8-16.6l-16.2-2.6z"/><path fill="#ADDC91" d="M74.9 40v23.1L59 60.6V40.5l26.8-4.3V40zM150 74.8v-49l16-2.6v5.5c3.5-2.4 7.6-3.7 12.5-3.7 13.4 0 23.6 10.9 23.6 25.4 0 15-9.9 25.4-24 25.4-4.9 0-9.7-1.4-13-4v2.9H150zm15.5-24.3c0 5.3 3.6 10.6 10.4 10.6 6.8 0 10.4-5.3 10.4-10.6s-3.6-10.6-10.4-10.6c-6.8 0-10.4 5.3-10.4 10.6zm-31.9 22.1L93 66V35l40.7-6.6c7.1 4.2 11.4 12.2 11.4 22.1 0 9.7-4.5 17.8-11.5 22.1zm-4.4-22.1c0-5.3-3.6-10.6-10.4-10.6-6.8 0-10.4 5.3-10.4 10.6s3.6 10.6 10.4 10.6c6.9.1 10.4-5.3 10.4-10.6z"/></svg>