<?xml version="1.0" encoding="UTF-8"?>
<svg width="108.03mm" height="21.541mm" version="1.1" viewBox="0 0 108.03 21.541" xmlns="http://www.w3.org/2000/svg" xmlns:xlink="http://www.w3.org/1999/xlink">
 <defs>
  <path id="d" d="m49.676 33.267c2.357-0.029 4.594-0.374 6.574-1.039 0.498-0.168 0.974-0.354 1.424-0.555-0.551 1.345-1.36 2.467-2.415 3.301-2.081 1.532-4.536 2.583-7.201 2.984 0.666-1.152 1.204-2.78 1.618-4.691m-11.093 3.268c-0.049-0.041-0.102-0.079-0.162-0.107-0.927-0.452-1.302-2.519-0.819-5.68 1.782 0.801 3.722 1.436 5.761 1.871 1.545 0.33 3.085 0.534 4.59 0.613-0.738 3.208-1.684 4.893-2.311 4.893-0.04 0-0.079 7e-3 -0.117 0.013-2.484-0.017-4.838-0.588-6.942-1.603m-8.607-10.219c-0.143-0.542-0.232-1.095-0.269-1.657 0.558 0.794 1.237 1.568 2.046 2.316 1.222 1.128 2.672 2.138 4.288 3.004-0.33 1.846-0.423 3.519-0.215 4.867-2.785-2.106-4.869-5.087-5.85-8.53m20.751-4.483c0-0.652-0.01-1.307-0.029-1.959 2.077-0.138 4-0.678 5.574-1.583 1.458 2.884 2.24 5.927 2.234 8.799-1e-3 0.832-0.073 1.623-0.205 2.37-0.75 0.459-1.613 0.857-2.584 1.185-1.724 0.58-3.666 0.896-5.725 0.949 0.496-2.967 0.735-6.412 0.735-9.761m-7.014 9.155c-2.068-0.443-4.022-1.1-5.791-1.931 0.581-2.614 1.663-5.781 3.377-9.297 0.249-0.509 0.503-1.01 0.762-1.5 1.199 0.538 2.504 0.965 3.872 1.257 1.039 0.223 2.079 0.344 3.096 0.379 0.019 0.626 0.027 1.271 0.027 1.937 0 3.931-0.314 7.194-0.768 9.744-1.492-0.065-3.029-0.26-4.575-0.589m-10.826-5.238c-1.418-1.31-2.393-2.698-2.89-4.076 0.394-1.544 1.156-3.094 2.277-4.579 1.063-1.408 2.386-2.676 3.903-3.766 0.438 0.791 1.051 1.563 1.832 2.295 0.742 0.695 1.607 1.325 2.566 1.876-0.264 0.501-0.522 1.01-0.774 1.528-1.481 3.035-2.69 6.292-3.4 9.246-1.319-0.743-2.504-1.589-3.514-2.524m16.706-15.513c1.898 1.413 3.638 3.236 5.093 5.368 0.276 0.404 0.536 0.815 0.783 1.23-1.333 0.771-3.021 1.232-4.84 1.361-0.154-2.881-0.495-5.653-1.036-7.959m-3.31 7.648c-1.208-0.257-2.356-0.628-3.414-1.093 1.558-2.725 3.261-5.094 4.942-6.855 0.525 2.066 0.965 4.844 1.151 8.288-0.885-0.037-1.785-0.148-2.679-0.34m-7.133-3.479c-0.691-0.646-1.215-1.32-1.568-1.997 1.564-0.941 3.295-1.708 5.139-2.263 1.097-0.33 2.207-0.574 3.314-0.743-1.598 1.791-3.194 4.066-4.657 6.636-0.836-0.483-1.585-1.03-2.228-1.633m-3.59-5.319c-0.023 0.084-0.047 0.17-0.066 0.258-0.169 0.787-0.149 1.594 0.049 2.394-1.796 1.239-3.358 2.704-4.602 4.35-0.379 0.501-0.718 1.013-1.025 1.528 0.925-3.418 2.937-6.392 5.644-8.53m1.566 0.606c0.185-0.866 0.706-1.64 1.511-2.28 1.949-0.582 4.216-0.442 6.599 0.43-1.003 0.174-2.006 0.406-2.995 0.705-1.841 0.552-3.579 1.308-5.171 2.226-0.036-0.365-0.019-0.727 0.056-1.081m13.543-2.199c0.573-0.371 1.101-0.625 1.542-0.73 0.837 0.335 1.667 0.764 2.454 1.306-1.263-0.316-2.606-0.508-3.996-0.576m-2.812-1.787c0.677 0.076 1.4 0.192 2.143 0.365-0.465 0.25-0.947 0.562-1.438 0.937-0.218-0.493-0.453-0.927-0.705-1.302m-1.809 0.655c-0.755-0.289-1.501-0.513-2.237-0.673 0.59-0.066 1.187-0.104 1.795-0.104 0.284 3e-3 0.633 0.345 0.998 1.006-0.185-0.079-0.37-0.157-0.556-0.229m-18.367 15.5c0 1.706 0.245 3.355 0.692 4.92 0.027 0.105 0.053 0.21 0.084 0.315 6e-3 0.019 0.015 0.037 0.022 0.058 2.264 7.321 9.096 12.654 17.15 12.654 3.726 0 7.189-1.142 10.061-3.092 0.029-0.017 0.058-0.031 0.084-0.049 0.17-0.116 0.335-0.238 0.495-0.366 3.303-2.439 5.741-5.982 6.769-10.081 0.058-0.188 0.108-0.38 0.15-0.574 0.01-0.047 0.013-0.091 0.015-0.137 0.245-1.179 0.373-2.399 0.373-3.647 0-2.422-0.474-4.773-1.411-6.985-0.18-0.425-0.669-0.624-1.094-0.443-0.425 0.178-0.623 0.669-0.444 1.093 0.849 2.005 1.279 4.137 1.279 6.335 0 1.347-0.167 2.655-0.478 3.908-0.247 0.79-0.68 1.521-1.279 2.185 0.015-0.283 0.024-0.569 0.025-0.862 7e-3 -3.202-0.879-6.584-2.521-9.763 1.204-1.034 1.973-2.312 2.236-3.741 0.084-0.453-0.216-0.888-0.669-0.972-0.454-0.085-0.889 0.215-0.973 0.669-0.174 0.945-0.665 1.812-1.433 2.548-0.239-0.395-0.487-0.786-0.75-1.171-1.465-2.148-3.206-4.006-5.111-5.489 2.515 0.166 4.839 0.775 6.711 1.821 0.293 0.167 0.683 0.162 0.958-0.067 0.354-0.295 0.402-0.823 0.105-1.177-2.689-3.761-7.34-5.836-13.1-5.836-9.894-1e-3 -17.946 8.05-17.946 17.946"/>
  <clipPath id="e">
   <use width="100%" height="100%" overflow="visible" xlink:href="#d"/>
  </clipPath>
  <radialGradient id="f" cx="-136.11" cy="-310.59" r=".4894" gradientTransform="matrix(60.742,0,0,60.743,8329.7,18876)" gradientUnits="userSpaceOnUse">
   <stop stop-color="#fff" offset="0"/>
   <stop stop-color="#E7F6FD" offset=".0598"/>
   <stop stop-color="#AFE2FA" offset=".1829"/>
   <stop stop-color="#37C6F4" offset=".3589"/>
   <stop stop-color="#00AEEF" offset=".544"/>
   <stop stop-color="#002F54" offset="1"/>
  </radialGradient>
 </defs>
 <rect transform="matrix(.60015 0 0 .60015 -16.613 -2.35)" x="27.681" y="3.915" width="35.895" height="35.894" clip-path="url(#e)" fill="url(#f)"/>
 <g transform="translate(-51.783,-36.74)" fill="#002f54" stroke-width=".60015">
  <path d="m75.696 41.542h5.4386v1.1157h-1.9973v5.5958h-1.4422v-5.5958h-1.9985v-1.1157z"/>
  <path d="m81.898 48.253v-6.7115h1.4416v2.6491h2.538v-2.6491h1.459v6.7115h-1.4404v-2.9473h-2.5567v2.9473z"/>
  <path d="m88.511 41.542h4.5v1.1157h-3.0578v1.5712h2.8633v1.1151h-2.8633v1.7945h3.1604v1.1151h-4.602v-6.7115z"/>
  <path d="m100.17 41.542h1.6258l1.1715 5.0479h0.0182l1.0791-5.0479h1.3755l-1.7104 6.7115h-1.5982l-1.2081-5.1133h-0.0181l-1.303 5.1133h-1.6348l-1.636-6.7115h1.4878l1.0311 5.0479h0.02041z"/>
  <path d="m105.93 44.898c0-1.9799 1.0035-3.4965 3.2246-3.4965 2.2206 0 3.2258 1.516 3.2258 3.4965s-1.0052 3.4941-3.2258 3.4941c-2.2224 0-3.2246-1.5142-3.2246-3.4941zm1.5322 0c0 1.1511 0.27009 2.4528 1.6918 2.4528 1.4224 0 1.6924-1.3017 1.6924-2.4528 0-1.1535-0.27006-2.4558-1.6924-2.4558-1.4218 0-1.6918 1.3029-1.6918 2.4558z"/>
  <path d="m114.77 48.253h-1.4416v-6.7115h2.8531c1.1535 0.0091 2.334 0.38051 2.334 1.7482 0 0.87323-0.56714 1.4506-1.3942 1.6264v0.01815c1.1067 0.12067 1.1067 0.7988 1.2273 1.729 0.066 0.42792 0.12067 1.2183 0.3901 1.5886h-1.5898c-0.11999-0.59414-0.186-1.1985-0.25026-1.8035-0.0379-0.37089-0.13133-0.88223-0.60434-0.90022h-1.5238v2.7037zm0-3.8206h1.2069c0.63377-0.01134 1.0047-0.3253 1.0047-0.92125 0-0.59416-0.37089-0.84562-1.0047-0.8546h-1.2069z"/>
  <path d="m119.62 48.253v-6.7115h1.4416v5.5964h2.9096v1.1151z"/>
  <path d="m124.75 41.542h2.2878c2.0904-0.01815 3.3921 1.0221 3.3921 3.3561 0 2.3328-1.3017 3.3735-3.3921 3.3549h-2.2878zm1.4404 5.5958h0.7436c1.7116 0.01815 1.9631-1.1721 1.9631-2.2398 0-1.0695-0.25146-2.259-1.9631-2.2404h-0.7436z"/>
  <path d="m134.08 48.253v-6.7115h2.5195c1.1991-0.0744 2.4264 0.4285 2.4264 1.7387 0 0.73398-0.51255 1.2459-1.1811 1.468v0.01815c0.8468 0.17716 1.4776 0.76281 1.4776 1.7471 0 1.3293-1.6744 1.8137-2.7049 1.7386zm2.5657-1.1157c0.67877 0 1.1433-0.12113 1.1433-0.89242 0-0.7712-0.46391-0.89244-1.1433-0.89244h-1.1259v1.7855h1.1259zm0-2.8993c0.60434 0 0.93803-0.25146 0.93803-0.79039 0-0.54015-0.33428-0.78982-0.93803-0.78982h-1.1259v1.5808z"/>
  <path d="m139.77 48.253 2.427-6.7115h1.7105l2.3322 6.7115h-1.4488l-0.48371-1.4224h-2.6587l-0.50293 1.4224zm4.1741-2.5374-0.92003-2.8633h-0.0181l-0.98485 2.8633z"/>
  <path d="m151 48.253-2.6497-5.5778-0.0181 0.01815v5.5586h-1.3474v-6.7115h2.1372l2.5579 5.2802 0.0181-0.02041v-5.261h1.3479v6.7121z"/>
  <path d="m155.66 44.442h0.0181l2.2314-2.9005h1.6822l-2.4636 3.0026 2.6779 3.7089h-1.7939l-2.3334-3.4209h-0.0182v3.4209h-1.4404v-6.7115h1.4404v2.9005z"/>
 </g>
</svg>